# xmcd CD database file
#
# Track frame offsets:
#	150
#	21577
#	22417
#	36967
#	60883
#	79925
#	100603
#	127930
#	148217
#	169114
#	182820
#	219509
#
# Disc length: 3219 seconds
#
# Revision: 0
# Processed by: cddbd v1.4PL0 Copyright (c) Steve Scherf et al.
# Submitted via: CDex 1.50Beta7
#
DISCID=a80c910c
DTITLE=Sophie Raymond and the Fat Chops - About to Burst
DYEAR=2001
DGENRE=Blues
TTITLE0=Never have an affair
TTITLE1=Intro Mr C
TTITLE2=Mr Convenience
TTITLE3=Sentimental Refrain
TTITLE4=The Leaving Song
TTITLE5=Horizon
TTITLE6=Randle
TTITLE7=Skin Deep
TTITLE8=Simple Life
TTITLE9=On Burnt Bridge
TTITLE10=Happy People
TTITLE11=Unknown
EXTD=YEAR: 2001
EXTT0=
EXTT1=
EXTT2=
EXTT3=
EXTT4=
EXTT5=
EXTT6=
EXTT7=
EXTT8=
EXTT9=
EXTT10=
EXTT11=
PLAYORDER=
